<?xml version="1.0" encoding="utf-8"?><!-- Uploaded to: SVG Repo, www.svgrepo.com, Generator: SVG Repo Mixer Tools -->
<svg version="1.1" id="Uploaded to svgrepo.com" xmlns="http://www.w3.org/2000/svg" xmlns:xlink="http://www.w3.org/1999/xlink" 
	 width="800px" height="800px" viewBox="0 0 32 32" xml:space="preserve">
<style type="text/css">
	.feather_een{fill:#ffffff;}
</style>
<path class="feather_een" d="M14,4C8.477,4,4,8.477,4,14c0,5.523,4.477,10,10,10c5.523,0,10-4.477,10-10C24,8.477,19.523,4,14,4z
	 M14,23c-4.963,0-9-4.037-9-9c0-4.963,4.037-9,9-9c4.963,0,9,4.037,9,9C23,18.963,18.963,23,14,23z M29.26,23.84l-4.3-2.867
	C26.245,18.957,27,16.569,27,14c0-7.18-5.82-13-13-13S1,6.82,1,14s5.82,13,13,13c2.569,0,4.956-0.755,6.973-2.041l2.867,4.3
	c0.725,1.087,1.945,1.74,3.252,1.74C29.25,31,31,29.25,31,27.092C31,25.785,30.347,24.565,29.26,23.84z M27.092,30
	c-0.975,0-1.879-0.484-2.42-1.295l-2.867-4.3l-0.544-0.815l-0.826,0.527C18.502,25.349,16.277,26,14,26C7.383,26,2,20.617,2,14
	S7.383,2,14,2s12,5.383,12,12c0,2.277-0.651,4.503-1.884,6.435l-0.527,0.826l0.815,0.544l4.3,2.867
	C29.516,25.212,30,26.117,30,27.092C30,28.695,28.695,30,27.092,30z M28,27c0,0.552-0.448,1-1,1s-1-0.448-1-1c0-0.552,0.448-1,1-1
	S28,26.448,28,27z"/>
</svg>