<?xml version="1.0" ?>

<!-- Uploaded to: SVG Repo, www.svgrepo.com, Generator: SVG Repo Mixer Tools -->
<svg fill="#ffffff" width="800px" height="800px" viewBox="0 0 256 256" id="Layer_1" version="1.1" xml:space="preserve" xmlns="http://www.w3.org/2000/svg" xmlns:xlink="http://www.w3.org/1999/xlink">

<g>

<path d="M141.3,5.6C104.7,5,71,26.2,55.9,59.6c-5.4,12-8.2,24.8-8.2,38c0,0.5,0,3.3,0,7.6c-0.7,3.1-3.4,6.2-6.2,9l-3.4,3.2   c-6.2,5.9-9.1,8.8-10,9.9c-1.8,2.1-2.9,4.2-3.6,6.3c-2.3,7,3.2,10.4,5,11.6c1.7,1,3.6,2,5.8,3c1.7,0.8,3.6,1.6,5.3,2.4   c0.2,0.1,0.5,0.2,0.7,0.3c1.4,9.3,6.7,44.5,6.8,44.8c0.7,5.9,2.7,10.4,6,13.4c5.8,5.3,13.6,5.1,19.9,4.9c4.7-0.1,8.7-0.1,13-0.1   c0.3,3.7,0.6,9.2,0.9,14c0.4,5.3,0.7,10.8,1,15c0.1,2.3,1.3,4.4,3.1,5.9c1.4,1.1,3.2,1.7,4.9,1.7c0.5,0,1.1-0.1,1.6-0.2l102.3-20.3   c5.5-1.1,9.5-6,9.5-11.6v-18.6c0-21.9,4.7-44,14.1-65.6c5.2-12,7.7-24.9,7.5-38.2C231,46,191.1,6.4,141.3,5.6z M215.6,130.3   c-9.9,22.8-14.9,46.2-14.9,69.5v18.6c0,1-0.7,1.9-1.7,2.1l-100.4,20c-0.3-3.9-0.6-8.6-0.9-13.2c-1.2-18.5-1.3-18.7-1.5-19.5l-1-3.5   h-3.7h-0.9c-5.6,0-10.8-0.1-16.8,0.1c-5,0.1-10.2,0.3-13.1-2.3c-1.5-1.4-2.5-3.9-2.9-7.5c-0.1-0.6-7.1-47.1-7.1-47.1l-0.2-1.4   l-0.9-1.1l-1.1-1.2c-1.1-0.9-2.3-1.3-3.2-1.7l-0.6-0.2c-1.7-0.7-3.4-1.5-5.2-2.3c-1.9-0.9-3.5-1.7-4.8-2.5   c-0.4-0.2-0.6-0.4-0.8-0.6c0.3-0.9,0.9-1.8,1.8-3c0.8-1,6.2-6.2,9.2-9c1.4-1.3,2.6-2.5,3.4-3.3c4.1-4.1,8.1-8.7,9-14.7l0.1-0.4   l0-0.4c0-4.6,0-7.5,0-8c0-11.9,2.5-23.3,7.3-34c13.6-29.9,43.8-48.9,76.5-48.4h0c44.6,0.7,80.3,36.2,81.1,80.8   C222.5,108,220.2,119.6,215.6,130.3z"/>

<path d="M152.7,44.6H128c-12.3,0-23.8,4.8-32.6,13.5c-2.1,2.2-3.9,4.3-5.4,6.4c-5.3,7.7-8.1,16.7-8.1,26.1   c0,13.7,6.1,26.6,16.5,35.3c-2,4-4.5,7.8-7.5,11.2c-1.8,2-2.2,4.9-1.1,7.3c1.1,2.4,3.5,4,6.2,4c13,0,25.2-4.1,35.6-11.8h21.1   c12.3,0,23.9-4.8,32.6-13.5c8.7-8.7,13.5-20.3,13.5-32.6C198.8,65.3,178.1,44.6,152.7,44.6z M178.4,116.4L178.4,116.4   c-6.9,6.9-16,10.7-25.8,10.7h-24.5l-1.3,1c-7.3,5.7-15.7,9.3-24.7,10.4c2.7-3.8,4.9-7.9,6.7-12.2l1.4-3.6l-3.1-2.2   c-9.7-6.8-15.5-18-15.5-29.8c0-7.4,2.2-14.6,6.4-20.7c1.2-1.7,2.6-3.4,4.2-5.1c6.9-6.9,16.1-10.7,25.8-10.7h24.7   c20.1,0,36.4,16.3,36.4,36.4C189.1,100.5,185.3,109.6,178.4,116.4z"/>

</g>

</svg>