<?xml version="1.0" encoding="utf-8"?>
<!-- Uploaded to: SVG Repo, www.svgrepo.com, Generator: SVG Repo Mixer Tools -->
<svg width="800px" height="800px" viewBox="0 0 24 24" fill="none" xmlns="http://www.w3.org/2000/svg">
<g clip-path="url(#clip0_1261_133178)">
<path fill-rule="evenodd" clip-rule="evenodd" d="M23.7071 0.292893C24.0976 0.683417 24.0976 1.31658 23.7071 1.70711L19.3021 6.11212C19.3774 6.53619 19.4166 6.9722 19.4166 7.41667V8.33334C19.4166 10.5339 19.7154 12.4847 20.1708 13.8507C20.4002 14.539 20.6513 15.0238 20.8816 15.316C21.0521 15.5324 21.1539 15.5761 21.1772 15.5834C21.7246 15.5891 22.1666 16.0346 22.1666 16.5833V16.7917C22.1666 17.344 21.7189 17.7917 21.1666 17.7917H7.62254L1.70711 23.7071C1.31658 24.0976 0.683417 24.0976 0.292893 23.7071C-0.0976311 23.3166 -0.0976311 22.6834 0.292893 22.2929L6.49555 16.0902C6.49929 16.0864 6.50305 16.0827 6.50685 16.0789L17.4885 5.09729C17.4976 5.08779 17.507 5.07846 17.5165 5.06931L22.2929 0.292893C22.6834 -0.0976311 23.3166 -0.0976311 23.7071 0.292893ZM17.4166 7.99759L9.62254 15.7917H18.8217C18.6122 15.3966 18.4303 14.9538 18.2734 14.4832C17.7334 12.8633 17.4166 10.6891 17.4166 8.33334V7.99759Z" fill="#000000"/>
<path d="M8.6554 19.6959C9.09947 19.3675 9.72565 19.4613 10.054 19.9054C10.5853 20.6239 11.2876 20.9999 11.9999 20.9999C12.7123 20.9999 13.4146 20.6239 13.9459 19.9054C14.2742 19.4613 14.9004 19.3675 15.3445 19.6959C15.7886 20.0242 15.8824 20.6504 15.554 21.0945C14.7219 22.2198 13.4648 22.9999 11.9999 22.9999C10.535 22.9999 9.27799 22.2198 8.44588 21.0945C8.11752 20.6504 8.21133 20.0242 8.6554 19.6959Z" fill="#000000"/>
<path d="M12 1.49012e-08C7.90384 1.49012e-08 4.58329 3.32056 4.58329 7.41667V8.33334C4.58329 9.94634 4.42266 11.4324 4.15402 12.6546C4.03545 13.194 4.37661 13.7274 4.91601 13.8459C5.45542 13.9645 5.98882 13.6233 6.10739 13.0839C6.4109 11.7032 6.58329 10.0715 6.58329 8.33334V7.41667C6.58329 4.42512 9.00841 2 12 2C13.1918 2 14.2911 2.38377 15.1849 3.03471C15.6313 3.35985 16.2568 3.26152 16.5819 2.81509C16.9071 2.36866 16.8087 1.74317 16.3623 1.41803C15.138 0.526355 13.629 1.49012e-08 12 1.49012e-08Z" fill="#000000"/>
</g>
<defs>
<clipPath id="clip0_1261_133178">
<rect width="24" height="24" fill="white"/>
</clipPath>
</defs>
</svg>