<?xml version="1.0" encoding="utf-8"?>
<!-- Uploaded to: SVG Repo, www.svgrepo.com, Generator: SVG Repo Mixer Tools -->
<svg fill="#999999" width="800px" height="800px" viewBox="-4.5 0 32 32" version="1.1" xmlns="http://www.w3.org/2000/svg">
<title>camera</title>
<path d="M18.281 8.719h2.125c1.438 0 2.625 1.156 2.625 2.625v11.375c0 1.438-1.188 2.625-2.625 2.625h-17.781c-1.438 0-2.625-1.188-2.625-2.625v-11.375c0-1.469 1.188-2.625 2.625-2.625h2.156c0.531-0.844 1.5-2.063 2.375-2.063h8.719c0.875 0 1.875 1.219 2.406 2.063zM11.438 22.031c3.219 0 5.844-2.625 5.844-5.844 0-3.25-2.625-5.875-5.844-5.875-3.25 0-5.906 2.625-5.906 5.875 0 3.219 2.656 5.844 5.906 5.844zM11.531 12.656c1.938 0 3.5 1.594 3.5 3.531 0 1.906-1.563 3.5-3.5 3.5s-3.531-1.594-3.531-3.5c0-1.938 1.594-3.531 3.531-3.531z"></path>
</svg>