<?xml version="1.0" encoding="iso-8859-1"?>
<!-- Uploaded to: SVG Repo, www.svgrepo.com, Generator: SVG Repo Mixer Tools -->
<svg fill="#000000" height="800px" width="800px" version="1.1" id="Layer_1" xmlns="http://www.w3.org/2000/svg" xmlns:xlink="http://www.w3.org/1999/xlink" 
	 viewBox="0 0 512 512" xml:space="preserve">
<g>
	<g>
		<path d="M507.108,71.674L440.326,4.892C437.196,1.761,432.946,0,428.522,0H50.087C22.468,0,0,22.468,0,50.087v411.826
			C0,489.532,22.468,512,50.087,512h411.826C489.532,512,512,489.532,512,461.913V83.478C512,79.049,510.239,74.804,507.108,71.674z
			 M133.565,33.391h33.391v100.174h-33.391V33.391z M378.435,478.609h-244.87v-33.391h244.87V478.609z M378.435,411.826h-244.87
			v-33.391h244.87V411.826z M378.435,345.043h-244.87v-33.391h244.87V345.043z M378.435,133.565H200.348V33.391h178.087V133.565z"/>
	</g>
</g>
</svg>