<?xml version="1.0" encoding="utf-8"?><!-- Uploaded to: SVG Repo, www.svgrepo.com, Generator: SVG Repo Mixer Tools -->
<svg width="800px" height="800px" viewBox="0 0 24 24" fill="none" xmlns="http://www.w3.org/2000/svg">
<path d="M7 9C8.10457 9 9 8.10457 9 7V3C9 2.44772 8.55228 2 8 2C7.44772 2 7 2.44772 7 3V7H3C2.44772 7 2 7.44772 2 8C2 8.55228 2.44772 9 3 9H7Z" fill="#000000"/>
<path d="M17 9C15.8954 9 15 8.10457 15 7V3C15 2.44772 15.4477 2 16 2C16.5523 2 17 2.44772 17 3V7H21C21.5523 7 22 7.44772 22 8C22 8.55228 21.5523 9 21 9H17Z" fill="#000000"/>
<path d="M17 15C15.8954 15 15 15.8954 15 17V21C15 21.5523 15.4477 22 16 22C16.5523 22 17 21.5523 17 21V17H21C21.5523 17 22 16.5523 22 16C22 15.4477 21.5523 15 21 15H17Z" fill="#000000"/>
<path d="M9 17C9 15.8954 8.10457 15 7 15H3C2.44772 15 2 15.4477 2 16C2 16.5523 2.44772 17 3 17H7V21C7 21.5523 7.44772 22 8 22C8.55228 22 9 21.5523 9 21V17Z" fill="#000000"/>
</svg>