<?xml version="1.0" encoding="utf-8"?>

<!-- Uploaded to: SVG Repo, www.svgrepo.com, Generator: SVG Repo Mixer Tools -->
<svg version="1.1" id="Uploaded to svgrepo.com" xmlns="http://www.w3.org/2000/svg" xmlns:xlink="http://www.w3.org/1999/xlink" 
	 width="800px" height="800px" viewBox="0 0 32 32" xml:space="preserve">
<style type="text/css">
	.duotone_een{fill:#01579b;}
	.duotone_twee{fill:#01579b;}
	.st0{fill:none;stroke:#01579b;stroke-width:2;stroke-linecap:round;stroke-miterlimit:10;}
	.st1{fill:#01579b}
</style>
<g>
	<rect x="10.5" y="15" transform="matrix(0.7071 -0.7071 0.7071 0.7071 -6.6274 16)" class="duotone_twee" width="11" height="2"/>
	<path class="duotone_een" d="M27.314,12.464c0.195,0.195,0.195,0.512,0,0.707l-2.121,2.121c-0.195,0.195-0.512,0.195-0.707,0
		l-7.778-7.778c-0.195-0.195-0.195-0.512,0-0.707l2.121-2.121c0.195-0.195,0.512-0.195,0.707,0l1.768,1.768l1.768-1.768
		c0.195-0.195,0.512-0.195,0.707,0l3.536,3.536c0.195,0.195,0.195,0.512,0,0.707l-1.768,1.768l0,0L27.314,12.464z M15.293,24.485
		l-7.778-7.778c-0.195-0.195-0.512-0.195-0.707,0l-2.121,2.121c-0.195,0.195-0.195,0.512,0,0.707l1.768,1.768l-1.768,1.768
		c-0.195,0.195-0.195,0.512,0,0.707l3.536,3.536c0.195,0.195,0.512,0.195,0.707,0l1.768-1.768l1.768,1.768
		c0.195,0.195,0.512,0.195,0.707,0l2.121-2.121C15.488,24.997,15.488,24.681,15.293,24.485z"/>
</g>
</svg>