<?xml version="1.0" encoding="iso-8859-1"?>
<!-- Uploaded to: SVG Repo, www.svgrepo.com, Generator: SVG Repo Mixer Tools -->
<svg fill="#FFFFFF" height="800px" width="800px" version="1.1" id="Layer_1" xmlns="http://www.w3.org/2000/svg" xmlns:xlink="http://www.w3.org/1999/xlink" 
	 viewBox="0 0 512 512" xml:space="preserve">
<g>
	<g>
		<path d="M281.1,0c-127.318,0-230.9,103.582-230.9,230.9c0,45.12,13.019,87.25,35.483,122.853l-70.654,70.654
			c-20.039,20.039-20.039,52.527,0,72.564c20.039,20.039,52.527,20.039,72.564,0l70.654-70.654
			c35.605,22.464,77.735,35.483,122.853,35.483c127.318,0,230.9-103.582,230.9-230.9S408.42,0,281.1,0z M281.1,410.489
			c-99.025,0-179.589-80.564-179.589-179.589S182.074,51.311,281.1,51.311S460.689,131.875,460.689,230.9
			S380.127,410.489,281.1,410.489z"/>
	</g>
</g>
</svg>