<?xml version="1.0" encoding="iso-8859-1"?>
<!-- Uploaded to: SVG Repo, www.svgrepo.com, Generator: SVG Repo Mixer Tools -->
<!DOCTYPE svg PUBLIC "-//W3C//DTD SVG 1.1//EN" "http://www.w3.org/Graphics/SVG/1.1/DTD/svg11.dtd">
<svg fill="rgb(0, 57, 105)" version="1.1" id="Capa_1" xmlns="http://www.w3.org/2000/svg" xmlns:xlink="http://www.w3.org/1999/xlink" 
	 width="800px" height="800px" viewBox="0 0 28.178 28.178"
	 xml:space="preserve">
<g>
	<path d="M0.34,9.567C0.39,9.523,0.442,9.479,0.5,9.444l13.089-7.558c0.31-0.179,0.69-0.179,1,0l13.089,7.558
		c0.061,0.034,0.109,0.079,0.16,0.123l-13.749,7.938L0.34,9.567z M14.589,19.527c-0.154,0.089-0.327,0.134-0.5,0.134
		s-0.347-0.044-0.5-0.134L0,11.68v13.745c0,0.554,0.447,1,1,1h26.178c0.553,0,1-0.446,1-1V11.68L14.589,19.527z"/>
</g>
</svg>