<?xml version="1.0" encoding="utf-8"?>
<!-- Uploaded to: SVG Repo, www.svgrepo.com, Generator: SVG Repo Mixer Tools -->
<svg fill="#999999" width="800px" height="800px" viewBox="0 0 32 32" version="1.1" xmlns="http://www.w3.org/2000/svg">
<title>paperclip-vertical</title>
<path d="M23.113 7.248h-0.002c0 0 0 0 0 0-0.689 0-1.248 0.558-1.25 1.247v0l-0.029 14.198c0.008 0.114 0.013 0.247 0.013 0.381 0 3.118-2.528 5.646-5.646 5.646-0.071 0-0.142-0.001-0.212-0.004l0.010 0h-0.014c-0.063 0.003-0.138 0.004-0.213 0.004-3.117 0-5.643-2.527-5.643-5.643 0-0.126 0.004-0.25 0.012-0.374l-0.001 0.017v-15.516c-0.004-0.063-0.006-0.136-0.006-0.21 0-2.054 1.665-3.719 3.719-3.719 0.074 0 0.147 0.002 0.219 0.006l-0.010-0c0.063-0.004 0.136-0.006 0.21-0.006 2.053 0 3.717 1.664 3.717 3.717 0 0.073-0.002 0.145-0.006 0.217l0-0.010-0.057 14.272c0.002 0.045 0.004 0.097 0.004 0.15 0 0.719-0.259 1.378-0.689 1.887l0.004-0.004c-0.332 0.333-0.788 0.544-1.293 0.557l-0.002 0c-0.51-0.006-0.966-0.228-1.284-0.578l-0.001-0.002c-0.407-0.5-0.654-1.145-0.654-1.847 0-0.073 0.003-0.145 0.008-0.217l-0.001 0.010v-10.344c0-0.69-0.56-1.25-1.25-1.25s-1.25 0.56-1.25 1.25v0 10.332c-0.018 0.153-0.028 0.33-0.028 0.51 0 2.491 1.964 4.524 4.428 4.634l0.010 0 0.038 0.002c0.003 0 0.006 0 0.009 0 1.214 0 2.308-0.512 3.078-1.332l0.002-0.002c0.852-0.937 1.374-2.189 1.374-3.561 0-0.062-0.001-0.124-0.003-0.186l0 0.009 0.057-14.285c0-8.434-12.844-8.434-12.844 0v15.518c-0.003 0.083-0.005 0.18-0.005 0.277 0 2.4 1.015 4.564 2.64 6.084l0.005 0.004c1.485 1.322 3.452 2.129 5.608 2.129 0.034 0 0.068-0 0.102-0.001l-0.005 0h0.019c0.025 0 0.054 0 0.083 0 2.168 0 4.146-0.817 5.642-2.16l-0.008 0.007c1.614-1.523 2.619-3.676 2.619-6.064 0-0.108-0.002-0.215-0.006-0.322l0 0.015 0.029-14.192c0-0.001 0-0.002 0-0.004 0-0.69-0.559-1.249-1.248-1.249h-0z"></path>
</svg>