<svg width="16" height="16" viewBox="0 0 16 16" fill="black" xmlns="http://www.w3.org/2000/svg">
<path d="M9.17506 8L15.2501 1.925C15.3866 1.76559 15.4579 1.56052 15.4498 1.35079C15.4417 1.14106 15.3548 0.942114 15.2064 0.793702C15.058 0.64529 14.859 0.558345 14.6493 0.550244C14.4395 0.542144 14.2345 0.613482 14.0751 0.750004L8.00006 6.825L1.92506 0.741671C1.76564 0.605149 1.56058 0.533811 1.35085 0.541912C1.14112 0.550013 0.942169 0.636956 0.793757 0.785368C0.645345 0.93378 0.558401 1.13273 0.5503 1.34246C0.542199 1.55219 0.613538 1.75725 0.75006 1.91667L6.82506 8L0.741726 14.075C0.654491 14.1497 0.583641 14.2416 0.533622 14.345C0.483602 14.4484 0.455493 14.561 0.45106 14.6758C0.446628 14.7906 0.465966 14.905 0.507861 15.0119C0.549757 15.1189 0.613305 15.216 0.694518 15.2972C0.77573 15.3784 0.872853 15.442 0.97979 15.4839C1.08673 15.5258 1.20117 15.5451 1.31594 15.5407C1.4307 15.5362 1.54331 15.5081 1.6467 15.4581C1.75009 15.4081 1.84202 15.3372 1.91673 15.25L8.00006 9.175L14.0751 15.25C14.2345 15.3865 14.4395 15.4579 14.6493 15.4498C14.859 15.4417 15.058 15.3547 15.2064 15.2063C15.3548 15.0579 15.4417 14.8589 15.4498 14.6492C15.4579 14.4395 15.3866 14.2344 15.2501 14.075L9.17506 8Z"/>
</svg>
