<?xml version="1.0" encoding="utf-8"?>
<svg width="40px" height="40px" viewBox="0 0 24 24" fill="white" xmlns="http://www.w3.org/2000/svg">
<g id="style=bulk">
<g id="menu-hamburger">
<path id="rectangle" d="M1.25 7.25C1.25 3.93629 3.93629 1.25 7.25 1.25H16.75C20.0637 1.25 22.75 3.93629 22.75 7.25V16.75C22.75 20.0637 20.0637 22.75 16.75 22.75H7.25C3.93629 22.75 1.25 20.0637 1.25 16.75V7.25Z" fill="none"/>
<path id="vector (Stroke)" fill-rule="evenodd" clip-rule="evenodd" d="M4.25 7.75C4.25 7.33579 4.51691 7 4.84615 7H19.1538C19.4831 7 19.75 7.33579 19.75 7.75C19.75 8.16421 19.4831 8.5 19.1538 8.5H4.84615C4.51691 8.5 4.25 8.16421 4.25 7.75Z" fill="white"/>
<path id="vector (Stroke)_2" fill-rule="evenodd" clip-rule="evenodd" d="M4.25 12.25C4.25 11.8358 4.51691 11.5 4.84615 11.5H19.1538C19.4831 11.5 19.75 11.8358 19.75 12.25C19.75 12.6642 19.4831 13 19.1538 13H4.84615C4.51691 13 4.25 12.6642 4.25 12.25Z" fill="white"/>
<path id="vector (Stroke)_3" fill-rule="evenodd" clip-rule="evenodd" d="M4.25 16.75C4.25 16.3358 4.51691 16 4.84615 16H19.1538C19.4831 16 19.75 16.3358 19.75 16.75C19.75 17.1642 19.4831 17.5 19.1538 17.5H4.84615C4.51691 17.5 4.25 17.1642 4.25 16.75Z" fill="white"/>
</g>
</g>
</svg>