<svg width="27" height="7.3" viewBox="0 0 27 3" fill="white" xmlns="http://www.w3.org/2000/svg">
<path d="M25.2396 0.333328H1.76042C0.995272 0.333328 0.375 0.900435 0.375 1.6V1.73333C0.375 2.43289 0.995272 2.99999 1.76042 2.99999H25.2396C26.0047 2.99999 26.625 2.43289 26.625 1.73333V1.6C26.625 0.900435 26.0047 0.333328 25.2396 0.333328Z" fill="white"/>
<path d="M25.2396 0.333328H1.76042C0.995272 0.333328 0.375 0.900435 0.375 1.6V1.73333C0.375 2.43289 0.995272 2.99999 1.76042 2.99999H25.2396C26.0047 2.99999 26.625 2.43289 26.625 1.73333V1.6C26.625 0.900435 26.0047 0.333328 25.2396 0.333328Z" fill="white"/>
<path d="M25.2396 0.333328H1.76042C0.995272 0.333328 0.375 0.900435 0.375 1.6V1.73333C0.375 2.43289 0.995272 2.99999 1.76042 2.99999H25.2396C26.0047 2.99999 26.625 2.43289 26.625 1.73333V1.6C26.625 0.900435 26.0047 0.333328 25.2396 0.333328Z" fill="white"/>
</svg>
